<svg width="348" height="342" viewBox="0 0 348 342" fill="none" xmlns="http://www.w3.org/2000/svg">
<ellipse cx="174" cy="171" rx="173.5" ry="171" fill="#D9D9D9"/>
<path d="M258.2 112.695H231.234L226.736 123.585H258.201C261.912 123.585 263.323 125.171 263.323 129.349V230.351C263.323 234.531 261.912 239.746 258.201 239.746H91.0257C87.313 239.746 82.6774 234.531 82.6774 230.351V129.349C82.6774 125.171 87.313 123.585 91.0257 123.585H207.788L212.289 112.695H91.0257C81.9606 112.695 73 119.148 73 129.349V230.351C73 240.55 81.9606 250.636 91.0257 250.636H258.201C267.267 250.636 273 240.55 273 230.351V129.349C273 119.148 267.266 112.695 258.2 112.695Z" fill="black"/>
<path d="M197.244 149.096L204.786 130.845H124.613V232.485H250.419V130.845H223.731L213.048 156.701L212.784 157.339L212.327 157.82L194.652 176.458L197.244 149.096Z" fill="black"/>
<path d="M89.129 232.485H118.161V130.845H89.129V232.485ZM95.5806 138.105H111.71V152.625H95.5806V138.105ZM95.5806 159.885H111.71V174.405H95.5806V159.885ZM103.645 201.63C108.323 201.63 112.113 205.894 112.113 211.159C112.113 216.423 108.323 220.687 103.645 220.687C98.9671 220.687 95.1774 216.423 95.1774 211.159C95.1774 205.894 98.9671 201.63 103.645 201.63Z" fill="black"/>
<path d="M239.085 85.0887L229.357 80L226.377 87.2123L236.143 92.2069L239.085 85.0887Z" fill="black"/>
<path d="M233.421 98.7881L223.655 93.7934L200.397 150.079L198.781 167.131L210.122 155.17L233.421 98.7881Z" fill="black"/>
</svg>
